<mxfile host="app.diagrams.net" agent="Mozilla/5.0 (Windows NT 10.0; Win64; x64) AppleWebKit/537.36 (KHTML, like Gecko) Chrome/135.0.0.0 Safari/537.36 Edg/135.0.0.0" version="26.2.12">
  <diagram name="페이지-1" id="VGAGOJmovM0ziVO1nRB5">
    <mxGraphModel dx="2059" dy="1560" grid="0" gridSize="10" guides="1" tooltips="1" connect="1" arrows="1" fold="1" page="0" pageScale="1" pageWidth="827" pageHeight="1169" math="0" shadow="0">
      <root>
        <mxCell id="0" />
        <mxCell id="1" parent="0" />
        <mxCell id="Ecr_Y7ELp4X2Vujxdn3T-1" value="회원" style="whiteSpace=wrap;html=1;align=center;" parent="1" vertex="1">
          <mxGeometry x="108" y="-92" width="100" height="40" as="geometry" />
        </mxCell>
        <mxCell id="Ecr_Y7ELp4X2Vujxdn3T-2" value="회원번호" style="ellipse;whiteSpace=wrap;html=1;align=center;fontStyle=4;" parent="1" vertex="1">
          <mxGeometry x="-66" y="-12" width="100" height="40" as="geometry" />
        </mxCell>
        <mxCell id="Ecr_Y7ELp4X2Vujxdn3T-3" value="이름" style="ellipse;whiteSpace=wrap;html=1;align=center;" parent="1" vertex="1">
          <mxGeometry x="3" y="45" width="100" height="40" as="geometry" />
        </mxCell>
        <mxCell id="Ecr_Y7ELp4X2Vujxdn3T-4" value="비밀번호" style="ellipse;whiteSpace=wrap;html=1;align=center;" parent="1" vertex="1">
          <mxGeometry x="105" y="-12" width="100" height="40" as="geometry" />
        </mxCell>
        <mxCell id="Ecr_Y7ELp4X2Vujxdn3T-5" value="이메일" style="ellipse;whiteSpace=wrap;html=1;align=center;" parent="1" vertex="1">
          <mxGeometry x="208" y="49" width="100" height="40" as="geometry" />
        </mxCell>
        <mxCell id="Ecr_Y7ELp4X2Vujxdn3T-6" value="여권번호" style="ellipse;whiteSpace=wrap;html=1;align=center;" parent="1" vertex="1">
          <mxGeometry x="239" y="-12" width="100" height="40" as="geometry" />
        </mxCell>
        <mxCell id="Ecr_Y7ELp4X2Vujxdn3T-7" value="" style="endArrow=none;html=1;rounded=0;fontSize=12;startSize=8;endSize=8;curved=1;exitX=0.5;exitY=0;exitDx=0;exitDy=0;entryX=0.5;entryY=1;entryDx=0;entryDy=0;" parent="1" source="Ecr_Y7ELp4X2Vujxdn3T-2" target="Ecr_Y7ELp4X2Vujxdn3T-1" edge="1">
          <mxGeometry relative="1" as="geometry">
            <mxPoint x="-238" y="-70.5" as="sourcePoint" />
            <mxPoint x="-78" y="-70.5" as="targetPoint" />
          </mxGeometry>
        </mxCell>
        <mxCell id="Ecr_Y7ELp4X2Vujxdn3T-8" value="" style="endArrow=none;html=1;rounded=0;fontSize=12;startSize=8;endSize=8;curved=1;entryX=0.5;entryY=1;entryDx=0;entryDy=0;exitX=0.5;exitY=0;exitDx=0;exitDy=0;" parent="1" source="Ecr_Y7ELp4X2Vujxdn3T-3" target="Ecr_Y7ELp4X2Vujxdn3T-1" edge="1">
          <mxGeometry relative="1" as="geometry">
            <mxPoint x="-105" y="-17" as="sourcePoint" />
            <mxPoint x="96" y="-46" as="targetPoint" />
          </mxGeometry>
        </mxCell>
        <mxCell id="Ecr_Y7ELp4X2Vujxdn3T-9" value="" style="endArrow=none;html=1;rounded=0;fontSize=12;startSize=8;endSize=8;curved=1;entryX=0.5;entryY=1;entryDx=0;entryDy=0;exitX=0.5;exitY=0;exitDx=0;exitDy=0;" parent="1" source="Ecr_Y7ELp4X2Vujxdn3T-4" target="Ecr_Y7ELp4X2Vujxdn3T-1" edge="1">
          <mxGeometry relative="1" as="geometry">
            <mxPoint x="-41" y="-1" as="sourcePoint" />
            <mxPoint x="83" y="-39" as="targetPoint" />
          </mxGeometry>
        </mxCell>
        <mxCell id="Ecr_Y7ELp4X2Vujxdn3T-10" value="" style="endArrow=none;html=1;rounded=0;fontSize=12;startSize=8;endSize=8;curved=1;entryX=0.5;entryY=1;entryDx=0;entryDy=0;exitX=0.5;exitY=0;exitDx=0;exitDy=0;" parent="1" source="Ecr_Y7ELp4X2Vujxdn3T-5" target="Ecr_Y7ELp4X2Vujxdn3T-1" edge="1">
          <mxGeometry relative="1" as="geometry">
            <mxPoint x="24" as="sourcePoint" />
            <mxPoint x="24" y="-40" as="targetPoint" />
          </mxGeometry>
        </mxCell>
        <mxCell id="Ecr_Y7ELp4X2Vujxdn3T-11" value="" style="endArrow=none;html=1;rounded=0;fontSize=12;startSize=8;endSize=8;curved=1;entryX=0.5;entryY=1;entryDx=0;entryDy=0;exitX=0.5;exitY=0;exitDx=0;exitDy=0;" parent="1" source="Ecr_Y7ELp4X2Vujxdn3T-6" target="Ecr_Y7ELp4X2Vujxdn3T-1" edge="1">
          <mxGeometry relative="1" as="geometry">
            <mxPoint x="188" y="-12" as="sourcePoint" />
            <mxPoint x="64" y="-50" as="targetPoint" />
          </mxGeometry>
        </mxCell>
        <mxCell id="Ecr_Y7ELp4X2Vujxdn3T-12" value="예약" style="whiteSpace=wrap;html=1;align=center;" parent="1" vertex="1">
          <mxGeometry x="607.5" y="-92" width="100" height="40" as="geometry" />
        </mxCell>
        <mxCell id="Ecr_Y7ELp4X2Vujxdn3T-15" value="예약일시" style="ellipse;whiteSpace=wrap;html=1;align=center;" parent="1" vertex="1">
          <mxGeometry x="658" y="-4" width="100" height="40" as="geometry" />
        </mxCell>
        <mxCell id="Ecr_Y7ELp4X2Vujxdn3T-16" value="결제금액" style="ellipse;whiteSpace=wrap;html=1;align=center;" parent="1" vertex="1">
          <mxGeometry x="768" y="36" width="100" height="40" as="geometry" />
        </mxCell>
        <mxCell id="Ecr_Y7ELp4X2Vujxdn3T-17" value="" style="endArrow=none;html=1;rounded=0;fontSize=12;startSize=8;endSize=8;curved=1;exitX=0.5;exitY=0;exitDx=0;exitDy=0;entryX=0.5;entryY=1;entryDx=0;entryDy=0;" parent="1" edge="1">
          <mxGeometry relative="1" as="geometry">
            <mxPoint x="409" y="-12" as="sourcePoint" />
            <mxPoint x="657" y="-52" as="targetPoint" />
          </mxGeometry>
        </mxCell>
        <mxCell id="Ecr_Y7ELp4X2Vujxdn3T-18" value="" style="endArrow=none;html=1;rounded=0;fontSize=12;startSize=8;endSize=8;curved=1;entryX=0.5;entryY=1;entryDx=0;entryDy=0;exitX=0.5;exitY=0;exitDx=0;exitDy=0;" parent="1" edge="1">
          <mxGeometry relative="1" as="geometry">
            <mxPoint x="463" y="45" as="sourcePoint" />
            <mxPoint x="657" y="-52" as="targetPoint" />
          </mxGeometry>
        </mxCell>
        <mxCell id="Ecr_Y7ELp4X2Vujxdn3T-19" value="" style="endArrow=none;html=1;rounded=0;fontSize=12;startSize=8;endSize=8;curved=1;entryX=0.5;entryY=1;entryDx=0;entryDy=0;exitX=0.5;exitY=0;exitDx=0;exitDy=0;" parent="1" edge="1">
          <mxGeometry relative="1" as="geometry">
            <mxPoint x="598" y="-4" as="sourcePoint" />
            <mxPoint x="657" y="-52" as="targetPoint" />
          </mxGeometry>
        </mxCell>
        <mxCell id="Ecr_Y7ELp4X2Vujxdn3T-20" value="" style="endArrow=none;html=1;rounded=0;fontSize=12;startSize=8;endSize=8;curved=1;entryX=0.5;entryY=1;entryDx=0;entryDy=0;exitX=0.5;exitY=0;exitDx=0;exitDy=0;" parent="1" source="Ecr_Y7ELp4X2Vujxdn3T-15" edge="1">
          <mxGeometry relative="1" as="geometry">
            <mxPoint x="667" as="sourcePoint" />
            <mxPoint x="657" y="-52" as="targetPoint" />
          </mxGeometry>
        </mxCell>
        <mxCell id="Ecr_Y7ELp4X2Vujxdn3T-21" value="" style="endArrow=none;html=1;rounded=0;fontSize=12;startSize=8;endSize=8;curved=1;entryX=0.5;entryY=1;entryDx=0;entryDy=0;exitX=0.5;exitY=0;exitDx=0;exitDy=0;" parent="1" source="Ecr_Y7ELp4X2Vujxdn3T-16" edge="1">
          <mxGeometry relative="1" as="geometry">
            <mxPoint x="831" y="-12" as="sourcePoint" />
            <mxPoint x="657" y="-52" as="targetPoint" />
          </mxGeometry>
        </mxCell>
        <mxCell id="Ecr_Y7ELp4X2Vujxdn3T-22" value="예약번호" style="ellipse;whiteSpace=wrap;html=1;align=center;fontStyle=4;" parent="1" vertex="1">
          <mxGeometry x="358" y="-12" width="100" height="40" as="geometry" />
        </mxCell>
        <mxCell id="Ecr_Y7ELp4X2Vujxdn3T-28" value="발급일시" style="ellipse;whiteSpace=wrap;html=1;align=center;" parent="1" vertex="1">
          <mxGeometry x="748.5" y="277" width="100" height="40" as="geometry" />
        </mxCell>
        <mxCell id="Ecr_Y7ELp4X2Vujxdn3T-29" value="" style="endArrow=none;html=1;rounded=0;fontSize=12;startSize=8;endSize=8;curved=1;exitX=0.5;exitY=0;exitDx=0;exitDy=0;entryX=0.5;entryY=1;entryDx=0;entryDy=0;" parent="1" edge="1">
          <mxGeometry relative="1" as="geometry">
            <mxPoint x="516.5" y="277" as="sourcePoint" />
            <mxPoint x="657.5" y="237" as="targetPoint" />
          </mxGeometry>
        </mxCell>
        <mxCell id="Ecr_Y7ELp4X2Vujxdn3T-33" value="" style="endArrow=none;html=1;rounded=0;fontSize=12;startSize=8;endSize=8;curved=1;entryX=0.5;entryY=1;entryDx=0;entryDy=0;exitX=0.5;exitY=0;exitDx=0;exitDy=0;" parent="1" source="Ecr_Y7ELp4X2Vujxdn3T-28" edge="1">
          <mxGeometry relative="1" as="geometry">
            <mxPoint x="831.5" y="277" as="sourcePoint" />
            <mxPoint x="657.5" y="237" as="targetPoint" />
          </mxGeometry>
        </mxCell>
        <mxCell id="Ecr_Y7ELp4X2Vujxdn3T-36" value="취소일시" style="ellipse;whiteSpace=wrap;html=1;align=center;" parent="1" vertex="1">
          <mxGeometry x="607.5" y="-387" width="100" height="40" as="geometry" />
        </mxCell>
        <mxCell id="Ecr_Y7ELp4X2Vujxdn3T-37" value="위약금" style="ellipse;whiteSpace=wrap;html=1;align=center;" parent="1" vertex="1">
          <mxGeometry x="732" y="-387" width="100" height="40" as="geometry" />
        </mxCell>
        <mxCell id="Ecr_Y7ELp4X2Vujxdn3T-38" value="환불금액" style="ellipse;whiteSpace=wrap;html=1;align=center;" parent="1" vertex="1">
          <mxGeometry x="855" y="-387" width="100" height="40" as="geometry" />
        </mxCell>
        <mxCell id="Ecr_Y7ELp4X2Vujxdn3T-45" value="항공사" style="whiteSpace=wrap;html=1;align=center;" parent="1" vertex="1">
          <mxGeometry x="935" y="194" width="100" height="40" as="geometry" />
        </mxCell>
        <mxCell id="Ecr_Y7ELp4X2Vujxdn3T-46" value="항공사ID" style="ellipse;whiteSpace=wrap;html=1;align=center;fontStyle=4;" parent="1" vertex="1">
          <mxGeometry x="905" y="275" width="100" height="40" as="geometry" />
        </mxCell>
        <mxCell id="Ecr_Y7ELp4X2Vujxdn3T-47" value="항공사명" style="ellipse;whiteSpace=wrap;html=1;align=center;" parent="1" vertex="1">
          <mxGeometry x="1015" y="275" width="100" height="40" as="geometry" />
        </mxCell>
        <mxCell id="Ecr_Y7ELp4X2Vujxdn3T-49" value="" style="endArrow=none;html=1;rounded=0;fontSize=12;startSize=8;endSize=8;curved=1;exitX=0.5;exitY=0;exitDx=0;exitDy=0;entryX=0.5;entryY=1;entryDx=0;entryDy=0;" parent="1" source="Ecr_Y7ELp4X2Vujxdn3T-46" target="Ecr_Y7ELp4X2Vujxdn3T-45" edge="1">
          <mxGeometry relative="1" as="geometry">
            <mxPoint x="731" y="221.5" as="sourcePoint" />
            <mxPoint x="891" y="221.5" as="targetPoint" />
          </mxGeometry>
        </mxCell>
        <mxCell id="Ecr_Y7ELp4X2Vujxdn3T-50" value="" style="endArrow=none;html=1;rounded=0;fontSize=12;startSize=8;endSize=8;curved=1;entryX=0.5;entryY=1;entryDx=0;entryDy=0;exitX=0.5;exitY=0;exitDx=0;exitDy=0;" parent="1" source="Ecr_Y7ELp4X2Vujxdn3T-47" target="Ecr_Y7ELp4X2Vujxdn3T-45" edge="1">
          <mxGeometry relative="1" as="geometry">
            <mxPoint x="864" y="275" as="sourcePoint" />
            <mxPoint x="1065" y="246" as="targetPoint" />
          </mxGeometry>
        </mxCell>
        <mxCell id="Ecr_Y7ELp4X2Vujxdn3T-52" value="항공편" style="whiteSpace=wrap;html=1;align=center;direction=north;" parent="1" vertex="1">
          <mxGeometry x="965" y="-122" width="40" height="100" as="geometry" />
        </mxCell>
        <mxCell id="Ecr_Y7ELp4X2Vujxdn3T-53" value="항공편ID" style="ellipse;whiteSpace=wrap;html=1;align=center;fontStyle=4;" parent="1" vertex="1">
          <mxGeometry x="1034" y="81" width="100" height="40" as="geometry" />
        </mxCell>
        <mxCell id="Ecr_Y7ELp4X2Vujxdn3T-55" value="운항편명" style="ellipse;whiteSpace=wrap;html=1;align=center;" parent="1" vertex="1">
          <mxGeometry x="1192" y="-16" width="100" height="40" as="geometry" />
        </mxCell>
        <mxCell id="Ecr_Y7ELp4X2Vujxdn3T-56" value="출발공항" style="ellipse;whiteSpace=wrap;html=1;align=center;" parent="1" vertex="1">
          <mxGeometry x="1265" y="-119" width="100" height="40" as="geometry" />
        </mxCell>
        <mxCell id="Ecr_Y7ELp4X2Vujxdn3T-57" value="도착공항" style="ellipse;whiteSpace=wrap;html=1;align=center;direction=west;" parent="1" vertex="1">
          <mxGeometry x="1246" y="-173" width="100" height="40" as="geometry" />
        </mxCell>
        <mxCell id="Ecr_Y7ELp4X2Vujxdn3T-58" value="" style="endArrow=none;html=1;rounded=0;fontSize=12;startSize=8;endSize=8;curved=1;exitX=0.5;exitY=0;exitDx=0;exitDy=0;entryX=0.5;entryY=1;entryDx=0;entryDy=0;" parent="1" source="Ecr_Y7ELp4X2Vujxdn3T-53" target="Ecr_Y7ELp4X2Vujxdn3T-52" edge="1">
          <mxGeometry relative="1" as="geometry">
            <mxPoint x="911" y="-136.5" as="sourcePoint" />
            <mxPoint x="1071" y="-136.5" as="targetPoint" />
          </mxGeometry>
        </mxCell>
        <mxCell id="Ecr_Y7ELp4X2Vujxdn3T-60" value="" style="endArrow=none;html=1;rounded=0;fontSize=12;startSize=8;endSize=8;curved=1;entryX=0.5;entryY=1;entryDx=0;entryDy=0;exitX=0.5;exitY=0;exitDx=0;exitDy=0;" parent="1" source="Ecr_Y7ELp4X2Vujxdn3T-55" target="Ecr_Y7ELp4X2Vujxdn3T-52" edge="1">
          <mxGeometry relative="1" as="geometry">
            <mxPoint x="1108" y="-67" as="sourcePoint" />
            <mxPoint x="1232" y="-105" as="targetPoint" />
          </mxGeometry>
        </mxCell>
        <mxCell id="Ecr_Y7ELp4X2Vujxdn3T-61" value="" style="endArrow=none;html=1;rounded=0;fontSize=12;startSize=8;endSize=8;curved=1;entryX=0.5;entryY=1;entryDx=0;entryDy=0;exitX=0.5;exitY=0;exitDx=0;exitDy=0;" parent="1" source="Ecr_Y7ELp4X2Vujxdn3T-56" target="Ecr_Y7ELp4X2Vujxdn3T-52" edge="1">
          <mxGeometry relative="1" as="geometry">
            <mxPoint x="1173" y="-66" as="sourcePoint" />
            <mxPoint x="1173" y="-106" as="targetPoint" />
          </mxGeometry>
        </mxCell>
        <mxCell id="Ecr_Y7ELp4X2Vujxdn3T-62" value="" style="endArrow=none;html=1;rounded=0;fontSize=12;startSize=8;endSize=8;curved=1;entryX=0.5;entryY=1;entryDx=0;entryDy=0;exitX=0.5;exitY=0;exitDx=0;exitDy=0;" parent="1" source="Ecr_Y7ELp4X2Vujxdn3T-57" target="Ecr_Y7ELp4X2Vujxdn3T-52" edge="1">
          <mxGeometry relative="1" as="geometry">
            <mxPoint x="1337" y="-78" as="sourcePoint" />
            <mxPoint x="1213" y="-116" as="targetPoint" />
          </mxGeometry>
        </mxCell>
        <mxCell id="Ecr_Y7ELp4X2Vujxdn3T-63" value="출발일시" style="ellipse;whiteSpace=wrap;html=1;align=center;direction=west;" parent="1" vertex="1">
          <mxGeometry x="1158" y="-342" width="100" height="40" as="geometry" />
        </mxCell>
        <mxCell id="Ecr_Y7ELp4X2Vujxdn3T-64" value="도착일시" style="ellipse;whiteSpace=wrap;html=1;align=center;direction=west;" parent="1" vertex="1">
          <mxGeometry x="1025" y="-427" width="100" height="40" as="geometry" />
        </mxCell>
        <mxCell id="Ecr_Y7ELp4X2Vujxdn3T-65" value="좌석등급&lt;span style=&quot;color: rgba(0, 0, 0, 0); font-family: monospace; font-size: 0px; text-align: start; text-wrap-mode: nowrap;&quot;&gt;%3CmxGraphModel%3E%3Croot%3E%3CmxCell%20id%3D%220%22%2F%3E%3CmxCell%20id%3D%221%22%20parent%3D%220%22%2F%3E%3CmxCell%20id%3D%222%22%20value%3D%22%EB%8F%84%EC%B0%A9%EC%9D%BC%EC%8B%9C%22%20style%3D%22ellipse%3BwhiteSpace%3Dwrap%3Bhtml%3D1%3Balign%3Dcenter%3B%22%20vertex%3D%221%22%20parent%3D%221%22%3E%3CmxGeometry%20x%3D%22-237%22%20y%3D%22-227%22%20width%3D%22100%22%20height%3D%2240%22%20as%3D%22geometry%22%2F%3E%3C%2FmxCell%3E%3C%2Froot%3E%3C%2FmxGraphModel%3E&lt;/span&gt;" style="ellipse;whiteSpace=wrap;html=1;align=center;direction=west;" parent="1" vertex="1">
          <mxGeometry x="1103" y="-384" width="100" height="40" as="geometry" />
        </mxCell>
        <mxCell id="Ecr_Y7ELp4X2Vujxdn3T-66" value="전체좌석수" style="ellipse;whiteSpace=wrap;html=1;align=center;" parent="1" vertex="1">
          <mxGeometry x="1223" y="-71" width="100" height="40" as="geometry" />
        </mxCell>
        <mxCell id="Ecr_Y7ELp4X2Vujxdn3T-67" value="남은좌석수" style="ellipse;whiteSpace=wrap;html=1;align=center;direction=west;" parent="1" vertex="1">
          <mxGeometry x="1233" y="-227" width="100" height="40" as="geometry" />
        </mxCell>
        <mxCell id="Ecr_Y7ELp4X2Vujxdn3T-68" value="요금" style="ellipse;whiteSpace=wrap;html=1;align=center;direction=west;" parent="1" vertex="1">
          <mxGeometry x="1192" y="-284" width="100" height="40" as="geometry" />
        </mxCell>
        <mxCell id="Ecr_Y7ELp4X2Vujxdn3T-69" value="" style="endArrow=none;html=1;rounded=0;fontSize=12;startSize=8;endSize=8;curved=1;exitX=0.5;exitY=0;exitDx=0;exitDy=0;entryX=0.5;entryY=1;entryDx=0;entryDy=0;" parent="1" source="Ecr_Y7ELp4X2Vujxdn3T-64" target="Ecr_Y7ELp4X2Vujxdn3T-52" edge="1">
          <mxGeometry relative="1" as="geometry">
            <mxPoint x="925" y="-68" as="sourcePoint" />
            <mxPoint x="1166" y="-119" as="targetPoint" />
          </mxGeometry>
        </mxCell>
        <mxCell id="Ecr_Y7ELp4X2Vujxdn3T-70" value="" style="endArrow=none;html=1;rounded=0;fontSize=12;startSize=8;endSize=8;curved=1;exitX=0.5;exitY=0;exitDx=0;exitDy=0;entryX=0.5;entryY=1;entryDx=0;entryDy=0;" parent="1" source="Ecr_Y7ELp4X2Vujxdn3T-65" target="Ecr_Y7ELp4X2Vujxdn3T-52" edge="1">
          <mxGeometry relative="1" as="geometry">
            <mxPoint x="972" y="7" as="sourcePoint" />
            <mxPoint x="1158" y="-119" as="targetPoint" />
          </mxGeometry>
        </mxCell>
        <mxCell id="Ecr_Y7ELp4X2Vujxdn3T-72" value="" style="endArrow=none;html=1;rounded=0;fontSize=12;startSize=8;endSize=8;curved=1;exitX=0.5;exitY=0;exitDx=0;exitDy=0;entryX=0.5;entryY=1;entryDx=0;entryDy=0;" parent="1" source="Ecr_Y7ELp4X2Vujxdn3T-66" target="Ecr_Y7ELp4X2Vujxdn3T-52" edge="1">
          <mxGeometry relative="1" as="geometry">
            <mxPoint x="801" y="-66" as="sourcePoint" />
            <mxPoint x="1166" y="-119" as="targetPoint" />
          </mxGeometry>
        </mxCell>
        <mxCell id="Ecr_Y7ELp4X2Vujxdn3T-74" value="" style="endArrow=none;html=1;rounded=0;fontSize=12;startSize=8;endSize=8;curved=1;exitX=0.5;exitY=0;exitDx=0;exitDy=0;entryX=0.5;entryY=1;entryDx=0;entryDy=0;" parent="1" source="Ecr_Y7ELp4X2Vujxdn3T-67" target="Ecr_Y7ELp4X2Vujxdn3T-52" edge="1">
          <mxGeometry relative="1" as="geometry">
            <mxPoint x="1273" y="11" as="sourcePoint" />
            <mxPoint x="1165" y="-119" as="targetPoint" />
          </mxGeometry>
        </mxCell>
        <mxCell id="Ecr_Y7ELp4X2Vujxdn3T-75" value="" style="endArrow=none;html=1;rounded=0;fontSize=12;startSize=8;endSize=8;curved=1;exitX=0.5;exitY=0;exitDx=0;exitDy=0;entryX=0.5;entryY=1;entryDx=0;entryDy=0;" parent="1" source="Ecr_Y7ELp4X2Vujxdn3T-68" target="Ecr_Y7ELp4X2Vujxdn3T-52" edge="1">
          <mxGeometry relative="1" as="geometry">
            <mxPoint x="1377" y="7" as="sourcePoint" />
            <mxPoint x="1163" y="-120" as="targetPoint" />
          </mxGeometry>
        </mxCell>
        <mxCell id="Ecr_Y7ELp4X2Vujxdn3T-76" value="" style="endArrow=none;html=1;rounded=0;fontSize=12;startSize=8;endSize=8;curved=1;exitX=0.5;exitY=0;exitDx=0;exitDy=0;entryX=0.5;entryY=1;entryDx=0;entryDy=0;" parent="1" source="Ecr_Y7ELp4X2Vujxdn3T-63" target="Ecr_Y7ELp4X2Vujxdn3T-52" edge="1">
          <mxGeometry relative="1" as="geometry">
            <mxPoint x="1454" y="8" as="sourcePoint" />
            <mxPoint x="1169" y="-117" as="targetPoint" />
          </mxGeometry>
        </mxCell>
        <mxCell id="Ecr_Y7ELp4X2Vujxdn3T-77" value="reserve" style="shape=rhombus;perimeter=rhombusPerimeter;whiteSpace=wrap;html=1;align=center;" parent="1" vertex="1">
          <mxGeometry x="348" y="-102" width="120" height="60" as="geometry" />
        </mxCell>
        <mxCell id="Ecr_Y7ELp4X2Vujxdn3T-86" value="for" style="shape=rhombus;perimeter=rhombusPerimeter;whiteSpace=wrap;html=1;align=center;" parent="1" vertex="1">
          <mxGeometry x="788" y="-102" width="120" height="60" as="geometry" />
        </mxCell>
        <mxCell id="Ecr_Y7ELp4X2Vujxdn3T-90" value="has" style="shape=rhombus;perimeter=rhombusPerimeter;whiteSpace=wrap;html=1;align=center;" parent="1" vertex="1">
          <mxGeometry x="925" y="26" width="120" height="60" as="geometry" />
        </mxCell>
        <mxCell id="Ecr_Y7ELp4X2Vujxdn3T-105" style="edgeStyle=none;curved=1;rounded=0;orthogonalLoop=1;jettySize=auto;html=1;entryX=0.5;entryY=1;entryDx=0;entryDy=0;fontSize=12;startSize=8;endSize=8;" parent="1" source="Ecr_Y7ELp4X2Vujxdn3T-36" target="Ecr_Y7ELp4X2Vujxdn3T-36" edge="1">
          <mxGeometry relative="1" as="geometry" />
        </mxCell>
        <mxCell id="Ecr_Y7ELp4X2Vujxdn3T-108" value="" style="endArrow=none;html=1;rounded=0;fontSize=12;startSize=8;endSize=8;curved=1;entryX=0.5;entryY=1;entryDx=0;entryDy=0;exitX=0.5;exitY=0;exitDx=0;exitDy=0;" parent="1" target="Ecr_Y7ELp4X2Vujxdn3T-36" edge="1">
          <mxGeometry relative="1" as="geometry">
            <mxPoint x="657.5" y="-302" as="sourcePoint" />
            <mxPoint x="548" y="-337" as="targetPoint" />
          </mxGeometry>
        </mxCell>
        <mxCell id="Ecr_Y7ELp4X2Vujxdn3T-109" value="" style="endArrow=none;html=1;rounded=0;fontSize=12;startSize=8;endSize=8;curved=1;entryX=0.5;entryY=1;entryDx=0;entryDy=0;exitX=0.5;exitY=0;exitDx=0;exitDy=0;" parent="1" target="Ecr_Y7ELp4X2Vujxdn3T-37" edge="1">
          <mxGeometry relative="1" as="geometry">
            <mxPoint x="657.5" y="-302" as="sourcePoint" />
            <mxPoint x="672" y="-335" as="targetPoint" />
          </mxGeometry>
        </mxCell>
        <mxCell id="Ecr_Y7ELp4X2Vujxdn3T-110" value="" style="endArrow=none;html=1;rounded=0;fontSize=12;startSize=8;endSize=8;curved=1;exitX=0.5;exitY=0;exitDx=0;exitDy=0;entryX=0.5;entryY=1;entryDx=0;entryDy=0;" parent="1" target="Ecr_Y7ELp4X2Vujxdn3T-38" edge="1">
          <mxGeometry relative="1" as="geometry">
            <mxPoint x="657.5" y="-302" as="sourcePoint" />
            <mxPoint x="914" y="-348" as="targetPoint" />
          </mxGeometry>
        </mxCell>
        <mxCell id="-yHP5SOhMwfA01DStBUR-5" value="" style="endArrow=none;html=1;rounded=0;fontSize=12;startSize=8;endSize=8;curved=1;entryX=1;entryY=0.5;entryDx=0;entryDy=0;exitX=0;exitY=0.5;exitDx=0;exitDy=0;" parent="1" source="Ecr_Y7ELp4X2Vujxdn3T-12" target="Ecr_Y7ELp4X2Vujxdn3T-77" edge="1">
          <mxGeometry relative="1" as="geometry">
            <mxPoint x="536" y="-63" as="sourcePoint" />
            <mxPoint x="696" y="-63" as="targetPoint" />
          </mxGeometry>
        </mxCell>
        <mxCell id="-yHP5SOhMwfA01DStBUR-6" value="N" style="resizable=0;html=1;whiteSpace=wrap;align=right;verticalAlign=bottom;" parent="-yHP5SOhMwfA01DStBUR-5" connectable="0" vertex="1">
          <mxGeometry x="1" relative="1" as="geometry" />
        </mxCell>
        <mxCell id="-yHP5SOhMwfA01DStBUR-7" value="" style="endArrow=none;html=1;rounded=0;fontSize=12;startSize=8;endSize=8;curved=1;entryX=0;entryY=0.5;entryDx=0;entryDy=0;exitX=1;exitY=0.5;exitDx=0;exitDy=0;" parent="1" source="Ecr_Y7ELp4X2Vujxdn3T-1" target="Ecr_Y7ELp4X2Vujxdn3T-77" edge="1">
          <mxGeometry relative="1" as="geometry">
            <mxPoint x="536" y="-63" as="sourcePoint" />
            <mxPoint x="696" y="-63" as="targetPoint" />
          </mxGeometry>
        </mxCell>
        <mxCell id="-yHP5SOhMwfA01DStBUR-8" value="1" style="resizable=0;html=1;whiteSpace=wrap;align=right;verticalAlign=bottom;" parent="-yHP5SOhMwfA01DStBUR-7" connectable="0" vertex="1">
          <mxGeometry x="1" relative="1" as="geometry" />
        </mxCell>
        <mxCell id="-yHP5SOhMwfA01DStBUR-9" value="" style="endArrow=none;html=1;rounded=0;fontSize=12;startSize=8;endSize=8;curved=1;entryX=0;entryY=0.5;entryDx=0;entryDy=0;exitX=1;exitY=0.5;exitDx=0;exitDy=0;" parent="1" source="Ecr_Y7ELp4X2Vujxdn3T-12" target="Ecr_Y7ELp4X2Vujxdn3T-86" edge="1">
          <mxGeometry relative="1" as="geometry">
            <mxPoint x="618" y="-62" as="sourcePoint" />
            <mxPoint x="478" y="-62" as="targetPoint" />
          </mxGeometry>
        </mxCell>
        <mxCell id="-yHP5SOhMwfA01DStBUR-10" value="N" style="resizable=0;html=1;whiteSpace=wrap;align=right;verticalAlign=bottom;" parent="-yHP5SOhMwfA01DStBUR-9" connectable="0" vertex="1">
          <mxGeometry x="1" relative="1" as="geometry" />
        </mxCell>
        <mxCell id="-yHP5SOhMwfA01DStBUR-11" value="" style="endArrow=none;html=1;rounded=0;fontSize=12;startSize=8;endSize=8;curved=1;entryX=1;entryY=0.5;entryDx=0;entryDy=0;exitX=0.5;exitY=0;exitDx=0;exitDy=0;" parent="1" source="Ecr_Y7ELp4X2Vujxdn3T-52" target="Ecr_Y7ELp4X2Vujxdn3T-86" edge="1">
          <mxGeometry relative="1" as="geometry">
            <mxPoint x="670" y="-68" as="sourcePoint" />
            <mxPoint x="830" y="-68" as="targetPoint" />
          </mxGeometry>
        </mxCell>
        <mxCell id="-yHP5SOhMwfA01DStBUR-12" value="1" style="resizable=0;html=1;whiteSpace=wrap;align=right;verticalAlign=bottom;" parent="-yHP5SOhMwfA01DStBUR-11" connectable="0" vertex="1">
          <mxGeometry x="1" relative="1" as="geometry" />
        </mxCell>
        <mxCell id="-yHP5SOhMwfA01DStBUR-13" value="" style="endArrow=none;html=1;rounded=0;fontSize=12;startSize=8;endSize=8;curved=1;entryX=0.5;entryY=0;entryDx=0;entryDy=0;exitX=0;exitY=0.5;exitDx=0;exitDy=0;" parent="1" source="Ecr_Y7ELp4X2Vujxdn3T-52" target="Ecr_Y7ELp4X2Vujxdn3T-90" edge="1">
          <mxGeometry relative="1" as="geometry">
            <mxPoint x="670" y="-68" as="sourcePoint" />
            <mxPoint x="830" y="-68" as="targetPoint" />
          </mxGeometry>
        </mxCell>
        <mxCell id="-yHP5SOhMwfA01DStBUR-14" value="N" style="resizable=0;html=1;whiteSpace=wrap;align=right;verticalAlign=bottom;" parent="-yHP5SOhMwfA01DStBUR-13" connectable="0" vertex="1">
          <mxGeometry x="1" relative="1" as="geometry" />
        </mxCell>
        <mxCell id="-yHP5SOhMwfA01DStBUR-17" value="" style="endArrow=none;html=1;rounded=0;fontSize=12;startSize=8;endSize=8;curved=1;entryX=0.5;entryY=1;entryDx=0;entryDy=0;exitX=0.5;exitY=0;exitDx=0;exitDy=0;" parent="1" source="Ecr_Y7ELp4X2Vujxdn3T-45" target="Ecr_Y7ELp4X2Vujxdn3T-90" edge="1">
          <mxGeometry relative="1" as="geometry">
            <mxPoint x="670" y="-68" as="sourcePoint" />
            <mxPoint x="830" y="-68" as="targetPoint" />
          </mxGeometry>
        </mxCell>
        <mxCell id="-yHP5SOhMwfA01DStBUR-18" value="1" style="resizable=0;html=1;whiteSpace=wrap;align=right;verticalAlign=bottom;" parent="-yHP5SOhMwfA01DStBUR-17" connectable="0" vertex="1">
          <mxGeometry x="1" relative="1" as="geometry" />
        </mxCell>
        <mxCell id="5Wjd-suTeiCowH8zTLHI-1" value="취소" style="shape=ext;margin=3;double=1;whiteSpace=wrap;html=1;align=center;" parent="1" vertex="1">
          <mxGeometry x="607.5" y="-302" width="100" height="40" as="geometry" />
        </mxCell>
        <mxCell id="5Wjd-suTeiCowH8zTLHI-2" value="cancel" style="shape=rhombus;double=1;perimeter=rhombusPerimeter;whiteSpace=wrap;html=1;align=center;" parent="1" vertex="1">
          <mxGeometry x="597.5" y="-207" width="120" height="60" as="geometry" />
        </mxCell>
        <mxCell id="5Wjd-suTeiCowH8zTLHI-5" value="" style="endArrow=none;html=1;rounded=0;entryX=0.5;entryY=0;entryDx=0;entryDy=0;exitX=0.5;exitY=1;exitDx=0;exitDy=0;" parent="1" source="5Wjd-suTeiCowH8zTLHI-1" target="5Wjd-suTeiCowH8zTLHI-2" edge="1">
          <mxGeometry relative="1" as="geometry">
            <mxPoint x="569" y="-116" as="sourcePoint" />
            <mxPoint x="729" y="-116" as="targetPoint" />
          </mxGeometry>
        </mxCell>
        <mxCell id="5Wjd-suTeiCowH8zTLHI-6" value="1" style="resizable=0;html=1;whiteSpace=wrap;align=right;verticalAlign=bottom;" parent="5Wjd-suTeiCowH8zTLHI-5" connectable="0" vertex="1">
          <mxGeometry x="1" relative="1" as="geometry" />
        </mxCell>
        <mxCell id="5Wjd-suTeiCowH8zTLHI-8" value="항공사ID" style="ellipse;whiteSpace=wrap;html=1;align=center;fontStyle=4;" parent="1" vertex="1">
          <mxGeometry x="1123" y="33" width="100" height="40" as="geometry" />
        </mxCell>
        <mxCell id="5Wjd-suTeiCowH8zTLHI-9" value="" style="endArrow=none;html=1;rounded=0;entryX=0.5;entryY=1;entryDx=0;entryDy=0;exitX=0.5;exitY=0;exitDx=0;exitDy=0;" parent="1" source="5Wjd-suTeiCowH8zTLHI-8" target="Ecr_Y7ELp4X2Vujxdn3T-52" edge="1">
          <mxGeometry relative="1" as="geometry">
            <mxPoint x="689" y="-116" as="sourcePoint" />
            <mxPoint x="849" y="-116" as="targetPoint" />
          </mxGeometry>
        </mxCell>
        <mxCell id="5Wjd-suTeiCowH8zTLHI-10" value="회원번호" style="ellipse;whiteSpace=wrap;html=1;align=center;fontStyle=4;" parent="1" vertex="1">
          <mxGeometry x="418" y="43" width="100" height="40" as="geometry" />
        </mxCell>
        <mxCell id="5Wjd-suTeiCowH8zTLHI-11" value="항공편ID" style="ellipse;whiteSpace=wrap;html=1;align=center;fontStyle=4;" parent="1" vertex="1">
          <mxGeometry x="553" y="-4" width="100" height="40" as="geometry" />
        </mxCell>
        <mxCell id="5Wjd-suTeiCowH8zTLHI-12" value="makes" style="shape=rhombus;double=1;perimeter=rhombusPerimeter;whiteSpace=wrap;html=1;align=center;" parent="1" vertex="1">
          <mxGeometry x="597.5" y="83" width="120" height="60" as="geometry" />
        </mxCell>
        <mxCell id="5Wjd-suTeiCowH8zTLHI-13" value="" style="endArrow=none;html=1;rounded=0;exitX=0.5;exitY=1;exitDx=0;exitDy=0;entryX=0.5;entryY=0;entryDx=0;entryDy=0;" parent="1" source="Ecr_Y7ELp4X2Vujxdn3T-12" target="5Wjd-suTeiCowH8zTLHI-12" edge="1">
          <mxGeometry relative="1" as="geometry">
            <mxPoint x="689" y="-16" as="sourcePoint" />
            <mxPoint x="849" y="-16" as="targetPoint" />
          </mxGeometry>
        </mxCell>
        <mxCell id="5Wjd-suTeiCowH8zTLHI-14" value="1" style="resizable=0;html=1;whiteSpace=wrap;align=right;verticalAlign=bottom;" parent="5Wjd-suTeiCowH8zTLHI-13" connectable="0" vertex="1">
          <mxGeometry x="1" relative="1" as="geometry" />
        </mxCell>
        <mxCell id="5Wjd-suTeiCowH8zTLHI-15" value="" style="endArrow=none;html=1;rounded=0;exitX=0.5;exitY=0;exitDx=0;exitDy=0;entryX=0.5;entryY=1;entryDx=0;entryDy=0;" parent="1" target="5Wjd-suTeiCowH8zTLHI-12" edge="1">
          <mxGeometry relative="1" as="geometry">
            <mxPoint x="657.5" y="197" as="sourcePoint" />
            <mxPoint x="668" y="93" as="targetPoint" />
          </mxGeometry>
        </mxCell>
        <mxCell id="5Wjd-suTeiCowH8zTLHI-16" value="1" style="resizable=0;html=1;whiteSpace=wrap;align=right;verticalAlign=bottom;" parent="5Wjd-suTeiCowH8zTLHI-15" connectable="0" vertex="1">
          <mxGeometry x="1" relative="1" as="geometry" />
        </mxCell>
        <mxCell id="5Wjd-suTeiCowH8zTLHI-17" value="탑승권" style="shape=ext;margin=3;double=1;whiteSpace=wrap;html=1;align=center;" parent="1" vertex="1">
          <mxGeometry x="607.5" y="198" width="100" height="40" as="geometry" />
        </mxCell>
        <mxCell id="5Wjd-suTeiCowH8zTLHI-18" value="&lt;span style=&quot;border-bottom: 1px dotted&quot;&gt;탑승권ID&lt;/span&gt;" style="ellipse;whiteSpace=wrap;html=1;align=center;" parent="1" vertex="1">
          <mxGeometry x="468" y="277" width="100" height="40" as="geometry" />
        </mxCell>
        <mxCell id="5Wjd-suTeiCowH8zTLHI-19" value="&lt;span style=&quot;border-bottom: 1px dotted&quot;&gt;취소ID&lt;/span&gt;" style="ellipse;whiteSpace=wrap;html=1;align=center;" parent="1" vertex="1">
          <mxGeometry x="483" y="-387" width="100" height="40" as="geometry" />
        </mxCell>
        <mxCell id="5Wjd-suTeiCowH8zTLHI-20" value="" style="endArrow=none;html=1;rounded=0;entryX=0.5;entryY=1;entryDx=0;entryDy=0;exitX=0.5;exitY=0;exitDx=0;exitDy=0;" parent="1" source="5Wjd-suTeiCowH8zTLHI-1" target="5Wjd-suTeiCowH8zTLHI-19" edge="1">
          <mxGeometry relative="1" as="geometry">
            <mxPoint x="714" y="-133" as="sourcePoint" />
            <mxPoint x="849" y="-135" as="targetPoint" />
          </mxGeometry>
        </mxCell>
        <mxCell id="JzEeuYGRnxthmvkDkdmd-1" value="" style="endArrow=none;html=1;rounded=0;entryX=0.5;entryY=0;entryDx=0;entryDy=0;exitX=0.5;exitY=1;exitDx=0;exitDy=0;" edge="1" parent="1" source="5Wjd-suTeiCowH8zTLHI-2" target="Ecr_Y7ELp4X2Vujxdn3T-12">
          <mxGeometry relative="1" as="geometry">
            <mxPoint x="570" y="-56" as="sourcePoint" />
            <mxPoint x="730" y="-56" as="targetPoint" />
          </mxGeometry>
        </mxCell>
        <mxCell id="JzEeuYGRnxthmvkDkdmd-3" value="0...1" style="text;html=1;align=center;verticalAlign=middle;whiteSpace=wrap;rounded=0;" vertex="1" parent="1">
          <mxGeometry x="658" y="-153" width="39" height="18" as="geometry" />
        </mxCell>
      </root>
    </mxGraphModel>
  </diagram>
</mxfile>
